<svg xmlns="http://www.w3.org/2000/svg" width="390" height="844" viewBox="0 0 390 844">
  <defs>
    <filter id="shadow" x="-20%" y="-20%" width="140%" height="160%">
      <feDropShadow dx="0" dy="-5" stdDeviation="10" flood-color="#0b1f44" flood-opacity="0.2"/>
    </filter>
    <style>
      text { font-family: -apple-system, BlinkMacSystemFont, "Segoe UI", sans-serif; fill: #13213a; }
      .muted { fill: #526581; }
      .body { font-size: 14px; }
      .label { font-size: 12px; font-weight: 700; }
      .strong { font-weight: 700; }
      text[fill="#ffffff"] { fill: #ffffff; }
    </style>
  </defs>
  <rect width="390" height="844" fill="#f6f8fc"/>
  <rect width="390" height="60" fill="#ffffff"/>
  <path d="M0 59.5H390" stroke="#d4deec"/>
  <rect x="16" y="16" width="28" height="28" rx="7" fill="#2864e8"/>
  <text x="56" y="36" font-size="16" font-weight="700">CMZ Platform</text>
  <text x="16" y="96" font-size="22" font-weight="750">Gestion des utilisateurs</text>
  <rect x="16" y="120" width="358" height="46" rx="8" fill="#ffffff" stroke="#718096"/>
  <text x="28" y="138" class="label muted">Recherche</text>
  <text x="28" y="158" class="body muted">Nom, prénom ou email</text>
  <rect x="16" y="180" width="358" height="104" rx="10" fill="#ffffff" stroke="#c0cbda"/>
  <text x="30" y="210" font-size="15" font-weight="700">Alpha Test</text>
  <text x="30" y="235" class="body muted">alpha.user@example.invalid</text>
  <text x="30" y="261" class="body muted">Profil A · Superviseur</text>

  <rect y="60" width="390" height="784" fill="#0b1f44" opacity="0.38"/>
  <path d="M0 185Q0 169 16 169H374Q390 169 390 185V844H0Z" fill="#ffffff" filter="url(#shadow)"/>
  <rect x="163" y="181" width="64" height="5" rx="2.5" fill="#bcc8d8"/>
  <text x="20" y="225" font-size="22" font-weight="750">Filtres</text>
  <text x="20" y="249" class="body muted">3 critères secondaires</text>
  <rect x="338" y="197" width="36" height="36" rx="18" fill="#edf2f8"/>
  <text x="356" y="222" font-size="21" text-anchor="middle">×</text>
  <path d="M0 270H390" stroke="#d4deec"/>

  <rect x="16" y="290" width="358" height="64" rx="10" fill="#ffffff" stroke="#c0cbda"/>
  <text x="32" y="316" class="label">Profil</text>
  <text x="32" y="339" class="body muted">Tous les profils</text>
  <text x="350" y="330" font-size="24" class="muted" text-anchor="middle">›</text>

  <rect x="16" y="366" width="358" height="64" rx="10" fill="#ffffff" stroke="#c0cbda"/>
  <text x="32" y="392" class="label">Rôle</text>
  <text x="32" y="415" class="body muted">Agent</text>
  <text x="350" y="406" font-size="24" class="muted" text-anchor="middle">›</text>

  <rect x="16" y="442" width="358" height="64" rx="10" fill="#ffffff" stroke="#c0cbda"/>
  <text x="32" y="468" class="label">Statut</text>
  <text x="32" y="491" class="body muted">Actif</text>
  <text x="350" y="482" font-size="24" class="muted" text-anchor="middle">›</text>

  <text x="20" y="548" class="body muted">Les choix restent en brouillon jusqu’à « Appliquer ».</text>
  <rect y="758" width="390" height="86" fill="#ffffff"/>
  <path d="M0 758H390" stroke="#d4deec"/>
  <rect x="16" y="774" width="156" height="52" rx="10" fill="#ffffff" stroke="#718096"/>
  <text x="94" y="806" class="body strong" text-anchor="middle">Réinitialiser</text>
  <rect x="184" y="774" width="190" height="52" rx="10" fill="#2864e8"/>
  <text x="279" y="806" class="body strong" fill="#ffffff" text-anchor="middle">Appliquer</text>
</svg>
