<svg xmlns="http://www.w3.org/2000/svg" width="1024" height="768" viewBox="0 0 1024 768">
  <defs><filter id="shadow" x="-30%" y="-10%" width="140%" height="120%"><feDropShadow dx="-7" dy="2" stdDeviation="9" flood-color="#0b1f44" flood-opacity=".2"/></filter><style>text{font-family:-apple-system,BlinkMacSystemFont,"Segoe UI",sans-serif;fill:#13213a}.b{font-size:13px}.m{fill:#526581}.l{font-size:12px;font-weight:700}.w{fill:#fff}.q{fill:#fff;stroke:#9babc0}.tag{fill:#9a5a00;font-size:10px;font-weight:700}</style></defs>
  <rect width="1024" height="768" fill="#f6f8fc"/><rect width="1024" height="64" fill="#fff"/><path d="M0 63.5H1024" stroke="#d4deec"/><rect x="32" y="18" width="28" height="28" rx="7" fill="#2864e8"/><text x="72" y="39" font-size="16" font-weight="700">CMZ Platform</text><text x="40" y="111" font-size="24" font-weight="750">Gestion des utilisateurs</text><rect x="824" y="82" width="160" height="42" rx="8" fill="#2864e8"/><text x="904" y="108" class="b w" font-weight="700" text-anchor="middle">Créer un utilisateur</text>
  <rect x="40" y="140" width="944" height="568" rx="12" fill="#fff" stroke="#b8c6d9"/><rect x="64" y="151" width="724" height="44" rx="8" fill="#fff" stroke="#718096"/><text x="82" y="178" class="b m">Rechercher un utilisateur</text><rect x="808" y="151" width="152" height="44" rx="8" fill="#edf4ff" stroke="#2864e8"/><text x="884" y="178" class="b" font-weight="700" text-anchor="middle">Filtres (1)</text><path d="M40 206H984" stroke="#d4deec"/>
  <rect x="40" y="206" width="944" height="50" fill="#edf2f8"/><text x="64" y="237" class="l">Email</text><text x="254" y="237" class="l">Profil</text><text x="378" y="237" class="l">Rôle</text><text x="490" y="237" class="l">Statut</text><text x="614" y="237" class="l">Mise à jour</text><rect x="40" y="256" width="944" height="54" fill="#f8fafc"/><rect x="234" y="266" width="116" height="34" rx="7" class="q"/><text x="248" y="288" class="b m">Tous</text><text x="334" y="288" class="b m" text-anchor="end">⌄</text><rect x="362" y="266" width="104" height="34" rx="7" class="q"/><text x="376" y="288" class="b m">Tous</text><text x="450" y="288" class="b m" text-anchor="end">⌄</text><rect x="478" y="266" width="108" height="34" rx="7" fill="#edf4ff" stroke="#2864e8"/><text x="492" y="288" class="b">Inactif</text><text x="570" y="288" class="b m" text-anchor="end">⌄</text><path d="M40 310H984" stroke="#d4deec"/>
  <g class="b"><text x="64" y="350">awa@example.invalid</text><text x="254" y="350">Profil A</text><text x="378" y="350">Agent</text><text x="490" y="350">Actif</text><text x="614" y="350">29/09/2026</text><text x="64" y="404">moussa@example.invalid</text><text x="254" y="404">Profil B</text><text x="378" y="404">Superviseur</text><text x="490" y="404">Actif</text></g><path d="M40 366H984M40 420H984" stroke="#d4deec"/><text x="64" y="662" class="b m">1–5 sur 42 utilisateurs</text><rect x="64" y="677" width="516" height="4" rx="2" fill="#d7e0ec"/><rect x="210" y="677" width="188" height="4" rx="2" fill="#718096"/>
  <rect x="604" y="206" width="380" height="502" fill="#fff" filter="url(#shadow)"/><path d="M604 206V708" stroke="#aebcd0"/><text x="628" y="244" font-size="20" font-weight="750">Filtres</text><text x="628" y="266" class="b m">1 appliqué · modifications en brouillon</text><rect x="932" y="219" width="34" height="34" rx="17" fill="#edf2f8"/><text x="949" y="243" font-size="20" text-anchor="middle">×</text><path d="M604 280H984" stroke="#d4deec"/><rect x="628" y="302" width="332" height="194" rx="10" fill="#fff" stroke="#aebcd0"/><rect x="628" y="302" width="332" height="48" rx="10" fill="#f5f8fc"/><text x="646" y="332" font-size="14" font-weight="750">Statut</text><text x="874" y="331" class="tag" text-anchor="end">MODIFIÉ</text><text x="910" y="332" class="b m" text-anchor="middle">⌃</text><text x="944" y="332" font-size="18" class="m" text-anchor="middle">×</text><path d="M628 350H960" stroke="#d4deec"/><text x="646" y="378" class="l">Valeur du brouillon</text><rect x="646" y="392" width="86" height="38" rx="19" fill="#fff" stroke="#718096"/><text x="689" y="416" class="b" text-anchor="middle">Tous</text><rect x="740" y="392" width="86" height="38" rx="19" fill="#edf4ff" stroke="#2864e8" stroke-width="2"/><text x="783" y="416" class="b" font-weight="700" text-anchor="middle">Actif</text><rect x="834" y="392" width="106" height="38" rx="19" fill="#fff" stroke="#718096"/><text x="887" y="416" class="b" text-anchor="middle">Inactif</text><text x="646" y="466" class="b m">Appliqué actuellement : Inactif</text><rect x="628" y="516" width="332" height="44" rx="8" fill="#fff" stroke="#2864e8" stroke-width="1.5"/><text x="794" y="544" class="b" font-weight="700" text-anchor="middle">+  Ajouter un filtre</text><rect x="604" y="624" width="380" height="84" fill="#fff"/><path d="M604 624H984" stroke="#d4deec"/><rect x="628" y="644" width="140" height="44" rx="8" fill="#fff" stroke="#718096"/><text x="698" y="671" class="b" font-weight="700" text-anchor="middle">Réinitialiser</text><rect x="820" y="644" width="140" height="44" rx="8" fill="#2864e8"/><text x="890" y="671" class="b w" font-weight="700" text-anchor="middle">Filtrer</text>
</svg>
